<?xml version="1.0" ?><!DOCTYPE svg  PUBLIC '-//W3C//DTD SVG 1.1//EN'  'http://www.w3.org/Graphics/SVG/1.1/DTD/svg11.dtd'><svg enable-background="new 0 0 48 48" id="Layer_1" version="1.1" viewBox="0 0 48 48" xml:space="preserve" xmlns="http://www.w3.org/2000/svg" xmlns:xlink="http://www.w3.org/1999/xlink"><g id="XMLID_4032_"><path d="M5.03,42.97c6.707,6.707,31.233,6.707,37.94,0c6.707-6.707,6.707-31.233,0-37.94   c-6.707-6.707-31.233-6.707-37.94,0C-1.677,11.737-1.677,36.263,5.03,42.97z" fill="#434A5C" id="XMLID_15427_"/><g id="XMLID_4029_"><circle cx="24" cy="24" fill="#FFFFFF" r="17.813"/><circle cx="24" cy="24" fill="#434A5C" r="8.243"/><g id="XMLID_4040_"><path d="M37.934,26.76l-7.288-5.297l-0.005-0.003l-5.422,16.686     C31.569,37.604,36.725,32.895,37.934,26.76z" fill="#816A9E" id="XMLID_4045_"/><path d="M30.641,21.459L30.641,21.459L30.641,21.459l0.005,0.003l7.288,5.297     c0.176-0.893,0.273-1.815,0.273-2.76c0-5.329-2.938-9.966-7.278-12.397l-6.926,5.029L30.641,21.459z" fill="#FB565A" id="XMLID_4046_"/><path d="M24.002,16.632l6.926-5.029c-2.051-1.149-4.411-1.81-6.928-1.81     c-3.559,0-6.805,1.318-9.298,3.481l2.656,8.188L24.002,16.632z" fill="#FFDE3E" id="XMLID_4047_"/><path d="M17.359,21.462l-2.656-8.188C11.7,15.88,9.793,19.713,9.793,24     c0,1.86,0.368,3.632,1.018,5.26h9.09L17.359,21.462z" fill="#38CBF6" id="XMLID_4049_"/></g><g id="XMLID_4030_"><path d="M28.104,29.26l-2.886,8.881c-0.405,0.041-0.81,0.061-1.215,0.061     c-5.985,0-11.099-3.706-13.195-8.942H28.104z" fill="#35A899" id="XMLID_4052_"/></g></g></g></svg>